<svg xmlns="http://www.w3.org/2000/svg" viewBox="0 0 144 144" fill="#CE422B">
  <path d="M143.9 64.4l-3.9-0.9c-0.1-1.4-0.4-2.7-0.7-4.1l3.5-2.1c0.4-0.2 0.5-0.7 0.3-1.1l-2.8-4.8c-0.2-0.4-0.7-0.5-1.1-0.3l-3.5 2.1c-0.8-1.2-1.7-2.3-2.7-3.3l2.1-3.5c0.2-0.4 0.1-0.9-0.3-1.1l-4.8-2.8c-0.4-0.2-0.9-0.1-1.1 0.3l-2.1 3.5c-1.1-0.6-2.2-1.2-3.3-1.7l0.9-3.9c0.1-0.4-0.1-0.9-0.5-1l-5.6-1.3c-0.4-0.1-0.9 0.1-1 0.5l-0.9 3.9c-1.4-0.2-2.7-0.3-4.1-0.3l0-4.1c0-0.5-0.4-0.9-0.9-0.9h-6.1c-0.5 0-0.9 0.4-0.9 0.9l0 4.1c-1.4 0-2.7 0.1-4.1 0.3l-0.9-3.9c-0.1-0.4-0.6-0.6-1-0.5l-5.6 1.3c-0.4 0.1-0.6 0.6-0.5 1l0.9 3.9c-1.1 0.5-2.2 1.1-3.3 1.7l-2.1-3.5c-0.2-0.4-0.7-0.5-1.1-0.3l-4.8 2.8c-0.4 0.2-0.5 0.7-0.3 1.1l2.1 3.5c-1 1-1.9 2.1-2.7 3.3l-3.5-2.1c-0.4-0.2-0.9-0.1-1.1 0.3l-2.8 4.8c-0.2 0.4-0.1 0.9 0.3 1.1l3.5 2.1c-0.3 1.4-0.6 2.7-0.7 4.1l-3.9 0.9c-0.4 0.1-0.6 0.6-0.5 1l1.3 5.6c0.1 0.4 0.6 0.6 1 0.5l3.9-0.9c0.2 1.4 0.5 2.7 0.9 4l-3.3 2.6c-0.4 0.3-0.4 0.8-0.1 1.2l3.6 4.5c0.3 0.4 0.8 0.4 1.2 0.1l3.3-2.6c0.7 1.1 1.5 2.2 2.4 3.2l-2.6 3.3c-0.3 0.4-0.2 0.9 0.1 1.2l4.5 3.6c0.4 0.3 0.9 0.2 1.2-0.1l2.6-3.3c1 0.8 2.1 1.6 3.2 2.4l-1.5 3.7c-0.2 0.4 0 0.9 0.4 1.1l5.2 2.1c0.4 0.2 0.9 0 1.1-0.4l1.5-3.7c1.3 0.4 2.6 0.7 4 0.9l-0.3 3.9c0 0.5 0.3 0.9 0.8 0.9l5.8 0.6c0.5 0 0.9-0.3 0.9-0.8l0.3-3.9c1.4-0.1 2.7-0.3 4-0.6l1.1 3.8c0.1 0.4 0.6 0.7 1 0.6l5.5-1.6c0.4-0.1 0.7-0.6 0.6-1l-1.1-3.8c1.2-0.6 2.4-1.3 3.5-2l2.3 3.4c0.3 0.4 0.8 0.5 1.2 0.2l4.9-3.3c0.4-0.3 0.5-0.8 0.2-1.2l-2.3-3.4c1-0.9 1.9-1.9 2.7-2.9l3.4 2.3c0.4 0.3 0.9 0.2 1.2-0.2l3.3-4.9c0.3-0.4 0.2-0.9-0.2-1.2l-3.4-2.3c0.7-1.1 1.3-2.3 1.8-3.5l3.8 1.1c0.4 0.1 0.9-0.2 1-0.6l1.6-5.5c0.1-0.4-0.2-0.9-0.6-1l-3.8-1.1c0.3-1.3 0.5-2.6 0.6-4l3.9 0.3c0.5 0 0.9-0.4 0.8-0.9l-0.6-5.8c0-0.5-0.4-0.9-0.9-0.8l-3.9-0.3c-0.2-1.4-0.5-2.7-0.9-4l3.7-1.5c0.4-0.2 0.6-0.7 0.4-1.1l-2.1-5.2c-0.2-0.4-0.7-0.6-1.1-0.4l-3.7 1.5c-0.8-1.1-1.6-2.2-2.4-3.2l3.3-2.6c0.4-0.3 0.4-0.8 0.1-1.2l-3.6-4.5c-0.3-0.4-0.8-0.4-1.2-0.1l-3.3 2.6c-1-0.9-2.1-1.7-3.2-2.4l2.6-3.3c0.3-0.4 0.2-0.9-0.1-1.2l-4.5-3.6c-0.4-0.3-0.9-0.2-1.2 0.1l-2.6 3.3c-1.1-0.7-2.2-1.3-3.4-1.8l1.5-3.7c0.2-0.4 0-0.9-0.4-1.1l-5.2-2.1c-0.4-0.2-0.9 0-1.1 0.4l-1.5 3.7c-1.3-0.4-2.6-0.7-4-0.9l0.3-3.9c0-0.5-0.3-0.9-0.8-0.9l-5.8-0.6c-0.5 0-0.9 0.3-0.9 0.8l-0.3 3.9c-1.4 0.1-2.7 0.3-4 0.6l-1.1-3.8c-0.1-0.4-0.6-0.7-1-0.6l-5.5 1.6c-0.4 0.1-0.7 0.6-0.6 1l1.1 3.8c-1.2 0.6-2.4 1.3-3.5 2l-2.3-3.4c-0.3-0.4-0.8-0.5-1.2-0.2l-4.9 3.3c-0.4 0.3-0.5 0.8-0.2 1.2l2.3 3.4c-1 0.9-1.9 1.9-2.7 2.9l-3.4-2.3c-0.4-0.3-0.9-0.2-1.2 0.2l-3.3 4.9c-0.3 0.4-0.2 0.9 0.2 1.2l3.4 2.3c-0.7 1.1-1.3 2.3-1.8 3.5l-3.8-1.1c-0.4-0.1-0.9 0.2-1 0.6l-1.6 5.5c-0.1 0.4 0.2 0.9 0.6 1l3.8 1.1c-0.3 1.3-0.5 2.6-0.6 4l-3.9-0.3c-0.5 0-0.9 0.4-0.8 0.9l0.6 5.8c0 0.5 0.4 0.9 0.9 0.8l3.9 0.3c0.2 1.4 0.5 2.7 0.9 4l-3.7 1.5c-0.4 0.2-0.6 0.7-0.4 1.1l2.1 5.2c0.2 0.4 0.7 0.6 1.1 0.4l3.7-1.5c0.8 1.1 1.6 2.2 2.4 3.2l-3.3 2.6c-0.4 0.3-0.4 0.8-0.1 1.2l3.6 4.5c0.3 0.4 0.8 0.4 1.2 0.1l3.3-2.6c1 0.9 2.1 1.7 3.2 2.4l-2.6 3.3c-0.3 0.4-0.2 0.9 0.1 1.2l4.5 3.6c0.4 0.3 0.9 0.2 1.2-0.1l2.6-3.3c1.1 0.7 2.2 1.3 3.4 1.8l-1.5 3.7c-0.2 0.4 0 0.9 0.4 1.1l5.2 2.1c0.4 0.2 0.9 0 1.1-0.4l1.5-3.7c1.3 0.4 2.6 0.7 4 0.9l-0.3 3.9c0 0.5 0.3 0.9 0.8 0.9l5.8 0.6c0.5 0 0.9-0.3 0.9-0.8l0.3-3.9c1.4-0.1 2.7-0.3 4-0.6l1.1 3.8c0.1 0.4 0.6 0.7 1 0.6l5.5-1.6c0.4-0.1 0.7-0.6 0.6-1l-1.1-3.8c1.2-0.6 2.4-1.3 3.5-2l2.3 3.4c0.3 0.4 0.8 0.5 1.2 0.2l4.9-3.3c0.4-0.3 0.5-0.8 0.2-1.2l-2.3-3.4c1-0.9 1.9-1.9 2.7-2.9l3.4 2.3c0.4 0.3 0.9 0.2 1.2-0.2l3.3-4.9c0.3-0.4 0.2-0.9-0.2-1.2l-3.4-2.3c0.7-1.1 1.3-2.3 1.8-3.5l3.8 1.1c0.4 0.1 0.9-0.2 1-0.6l1.6-5.5c0.1-0.4-0.2-0.9-0.6-1l-3.8-1.1c0.3-1.3 0.5-2.6 0.6-4l3.9 0.3c0.5 0 0.9-0.4 0.8-0.9l-0.6-5.8C144.8 64.8 144.4 64.4 143.9 64.4z"/>
  <circle cx="72" cy="72" r="25" fill="white"/>
  <circle cx="72" cy="72" r="15" fill="#CE422B"/>
</svg>